<svg width="195" height="217" viewBox="0 0 195 217" fill="none" xmlns="http://www.w3.org/2000/svg">
<path d="M29.2658 274.257L-78.7919 166.199C-78.1995 169.192 -77.4825 172.123 -76.703 175.053L20.4117 272.168C23.3423 272.947 26.2729 273.664 29.2658 274.257Z" fill="#00C6A2" fillOpacity="0.4"/>
<path d="M56.7324 277C57.013 277 57.3247 277 57.6053 277L-81.5042 137.859C-81.5042 138.14 -81.5042 138.452 -81.5042 138.732C-81.5042 140.759 -81.4418 142.754 -81.3795 144.718L50.7465 276.844C52.7418 276.938 54.7371 277 56.7324 277Z" fill="#00C6A2" fillOpacity="0.4"/>
<path d="M81.1124 274.849L-79.3529 114.383C-79.6958 116.316 -80.0076 118.28 -80.257 120.213L75.2824 275.753C77.2154 275.503 79.1795 275.192 81.1124 274.849Z" fill="#00C6A2" fillOpacity="0.4"/>
<path d="M101.47 269.611L-74.1155 94.0253C-74.7078 95.7088 -75.2378 97.4235 -75.7366 99.1382L96.3575 271.232C98.0722 270.702 99.7869 270.172 101.47 269.611Z" fill="#00C6A2" fillOpacity="0.4"/>
<path d="M119.459 261.973L-66.5083 76.0054C-67.2565 77.5018 -68.0048 79.0295 -68.7218 80.5572L114.908 264.187C116.435 263.47 117.963 262.752 119.459 261.973Z" fill="#00C6A2" fillOpacity="0.4"/>
<path d="M135.484 252.371L-56.9059 59.9806C-57.8412 61.3212 -58.7453 62.6618 -59.6182 64.0335L131.431 255.083C132.803 254.21 134.144 253.306 135.484 252.371Z" fill="#00C6A2" fillOpacity="0.4"/>
<path d="M149.763 241.022L-45.5264 45.7327C-46.5864 46.9174 -47.6464 48.1021 -48.6752 49.318L146.178 244.171C147.362 243.142 148.578 242.082 149.763 241.022Z" fill="#00C6A2" fillOpacity="0.4"/>
<path d="M162.327 227.959L-32.4947 33.1375C-33.7106 34.1663 -34.9264 35.2263 -36.1112 36.2863L159.178 231.576C160.238 230.391 161.298 229.206 162.327 227.959Z" fill="#00C6A2" fillOpacity="0.4"/>
<path d="M173.208 213.244L-17.7794 22.257C-19.1512 23.13 -20.4918 24.0341 -21.8323 24.9693L170.527 217.297C171.431 215.956 172.335 214.616 173.208 213.244Z" fill="#00C6A2" fillOpacity="0.4"/>
<path d="M182.28 196.689L-1.19359 13.2159C-2.72124 13.9329 -4.2489 14.65 -5.74537 15.4294L180.098 201.272C180.846 199.745 181.563 198.217 182.28 196.689Z" fill="#00C6A2" fillOpacity="0.4"/>
<path d="M189.295 178.077L17.3877 6.17003C15.673 6.66885 13.9583 7.23 12.2748 7.79118L187.674 183.19C188.266 181.507 188.796 179.792 189.295 178.077Z" fill="#00C6A2" fillOpacity="0.4"/>
<path d="M193.784 156.94L38.5252 1.68063C36.5611 1.93005 34.597 2.24184 32.6641 2.58478L192.88 162.801C193.223 160.868 193.535 158.904 193.784 156.94Z" fill="#00C6A2" fillOpacity="0.4"/>
<path d="M195 138.732C195 136.581 194.938 134.461 194.844 132.372L63.1235 0.651733C61.0035 0.558197 58.8835 0.495788 56.7635 0.495789C56.5765 0.495789 56.4206 0.495789 56.2335 0.495789L195 139.262C194.969 139.106 195 138.919 195 138.732Z" fill="#00C6A2" fillOpacity="0.4"/>
<path d="M190.012 101.944L93.5206 5.45266C90.59 4.64207 87.6283 3.925 84.6353 3.30148L192.163 110.829C191.539 107.836 190.822 104.874 190.012 101.944Z" fill="#00C6A2" fillOpacity="0.4"/>
<path d="M126.069 19.1394L176.357 69.4271C164.26 48.6012 146.895 31.2359 126.069 19.1394Z" fill="#00C6A2" fillOpacity="0.4"/>
</svg>
