<svg width="210" height="48" viewBox="0 0 210 48" fill="none" xmlns="http://www.w3.org/2000/svg">
<g clip-path="url(#clip0_2468_26436)">
<path d="M29.2567 25.0069C28.4437 26.5351 28.0798 28.0018 27.5378 29.3956C26.8254 31.2272 26.1711 33.0817 25.5052 34.9325C25.3659 35.3203 25.1491 35.4662 24.7271 35.4662C22.2803 35.447 19.8297 35.447 17.3829 35.4662C16.9261 35.47 16.6976 35.2972 16.5002 34.9056C13.7553 29.4993 11.0027 24.0969 8.23462 18.7021C7.94039 18.13 8.00233 17.9341 8.69919 17.9418C11.0492 17.9649 13.403 17.9687 15.7569 17.9303C16.3221 17.9226 16.5389 18.1876 16.7557 18.6215C17.9172 20.9214 19.098 23.2137 20.3872 25.7326C21.0221 24.0201 21.5834 22.5149 22.1371 21.0097C22.981 18.7059 23.8444 16.406 24.6496 14.0906C24.8626 13.4839 25.1413 13.2497 25.815 13.2651C28.103 13.3112 30.391 13.315 32.6752 13.2612C33.4108 13.242 33.6779 13.5454 33.8986 14.1597C34.971 17.147 36.0821 20.1228 37.1777 23.0985C37.2551 23.3059 37.3442 23.5055 37.4836 23.8396C38.7457 20.476 39.9613 17.2392 41.1769 13.9985C41.7693 12.4204 42.3268 10.8269 42.9617 9.26412C43.2327 8.59218 43.2443 8.23892 42.3965 8.0815C41.5796 7.92791 40.7975 7.60538 40 7.3558C39.9962 6.96031 40.3446 6.90271 40.5575 6.76064C43.5656 4.79472 46.5931 2.85184 49.5935 0.874394C50.0813 0.555699 50.302 0.490425 50.5188 1.13549C51.6067 4.38003 52.7372 7.60922 53.8483 10.8422C53.9063 11.0112 53.9373 11.1916 54.0302 11.5411C53.2521 11.3184 52.5862 11.207 51.99 10.9382C51.1808 10.5696 50.9098 10.873 50.6427 11.6102C49.4309 14.9661 48.1688 18.3066 46.9183 21.651C45.2923 25.9975 43.6469 30.3364 42.0558 34.6944C41.8119 35.3587 41.4867 35.543 40.8053 35.5315C38.5521 35.4892 36.295 35.4815 34.038 35.5238C33.3643 35.5353 33.0972 35.2972 32.8804 34.6944C31.8351 31.7878 30.7356 28.9003 29.6516 26.0052C29.5587 25.7326 29.4464 25.4753 29.2567 25.0069Z" fill="#0B5306"/>
<path d="M45.9266 33.627C45.3536 35.5353 44.3974 37.2171 43.2243 38.776C39.3683 43.9058 34.1264 46.705 27.8197 47.6956C16.8247 49.4235 6.50726 43.6678 2.2409 33.3543C-0.747881 26.1319 -0.879511 18.8787 2.61643 11.7983C5.54713 5.86981 10.2742 1.91877 16.8673 0.475044C23.1894 -0.911085 28.834 0.824456 33.9521 4.54512C34.7922 5.15563 35.6478 5.7623 36.1937 6.71071C35.1407 6.10787 34.0992 5.47817 33.0269 4.90989C30.4755 3.55832 27.7733 2.62527 24.8735 2.42945C18.6211 2.00708 13.8824 4.75246 10.1581 9.49064C8.70238 11.3414 7.66483 13.4225 6.94086 15.6572C5.90331 18.8518 5.74458 22.0964 6.17818 25.4177C6.6505 29.0654 8.06746 32.3522 10.1852 35.2703C13.7895 40.2351 18.6792 43.4143 24.889 44.1093C33.836 45.1115 40.6304 41.4715 45.5627 34.1722C45.6788 33.9841 45.8027 33.8074 45.9266 33.627Z" fill="#0B5306"/>
<path d="M123.136 19.2524C123.57 19.2524 123.918 19.2524 124.263 19.2524C129.675 19.2524 135.091 19.3369 140.503 19.2255C144.41 19.1449 146.853 22.6428 145.289 26.5363C145.095 27.0201 145.188 27.2505 145.501 27.5999C147.023 29.3085 147.259 31.2821 146.373 33.3095C145.501 35.3023 143.814 36.1393 141.638 36.1317C135.803 36.1163 129.973 36.1278 124.139 36.124C123.825 36.124 123.512 36.0971 123.136 36.0779C123.136 30.4873 123.136 24.9582 123.136 19.2524ZM127.557 32.914C132.408 32.914 137.17 32.937 141.928 32.891C142.71 32.8833 143.179 32.2997 143.272 31.4972C143.442 30.0035 142.795 29.2701 141.266 29.2701C136.98 29.2625 132.695 29.2663 128.413 29.2701C128.138 29.2701 127.859 29.3124 127.561 29.3393C127.557 30.5411 127.557 31.6507 127.557 32.914ZM127.577 26.0755C132.025 26.0755 136.365 26.087 140.705 26.064C141.611 26.0602 142.102 25.488 142.234 24.6318C142.447 23.2341 141.707 22.4124 140.209 22.4086C136.287 22.3971 132.366 22.4048 128.444 22.4086C128.165 22.4086 127.886 22.4508 127.58 22.4777C127.577 23.6872 127.577 24.8238 127.577 26.0755Z" fill="#0B5306"/>
<path d="M59.8724 19.4828C61.2971 19.4828 62.7063 19.4444 64.1155 19.5173C64.3594 19.5289 64.673 19.9743 64.7969 20.2814C66.1867 23.6412 67.5456 27.0163 68.9161 30.3837C69.071 30.7638 69.2336 31.1363 69.4659 31.6853C69.7098 31.2092 69.8917 30.8828 70.0505 30.5449C71.6416 27.166 73.2483 23.7948 74.793 20.3966C75.1221 19.6709 75.5325 19.406 76.3184 19.4598C77.3134 19.525 78.3161 19.5173 79.3149 19.4598C79.973 19.4214 80.2866 19.6556 80.5228 20.2584C81.8894 23.7295 83.2948 27.1891 84.6924 30.6486C84.8201 30.9635 84.9672 31.2706 85.184 31.7583C85.4241 31.2822 85.5983 30.9596 85.7532 30.6256C87.3753 27.1583 89.0052 23.6911 90.6002 20.2085C90.848 19.6633 91.1461 19.429 91.7539 19.4636C92.6792 19.5097 93.6084 19.4751 94.6962 19.4751C93.9607 21.0455 93.287 22.4816 92.6095 23.9138C90.9371 27.4655 89.2413 31.0057 87.5998 34.5689C87.1391 35.5673 86.4771 36.0511 85.3505 35.9743C84.2936 35.9052 82.9812 36.2814 82.2456 35.79C81.51 35.2985 81.3281 33.9738 80.9293 33.0023C79.7562 30.1379 78.6025 27.2697 77.4334 24.4053C77.3521 24.2095 77.2398 24.0251 77.0578 23.6681C76.8372 24.1019 76.6746 24.3899 76.5352 24.6894C74.9053 28.1567 73.2522 31.6124 71.6687 35.095C71.3474 35.7976 70.9603 36.0319 70.2169 35.9781C69.3536 35.9128 68.4516 36.0895 67.6153 35.9167C67.0346 35.7976 66.2526 35.3906 66.0474 34.9107C63.9374 29.9152 61.932 24.8776 59.8995 19.8514C59.8608 19.7784 59.8801 19.6748 59.8724 19.4828Z" fill="#0B5306"/>
<path d="M209.032 11.1353C204.487 12.1912 199.017 13.2395 193.678 14.7446C182.137 17.993 171.495 23.1036 162.133 30.6332C160.461 31.9771 158.885 33.4477 157.356 34.9491C156.609 35.6824 155.858 36.0242 154.805 35.9935C152.73 35.9282 150.647 35.9743 148.545 35.8591C165.749 19.6402 186.268 11.5461 209.032 11.1353Z" fill="#0B5306"/>
<path d="M97.445 26.064C102.358 26.064 107.217 26.064 112.153 26.064C112.153 27.0777 112.153 28.0837 112.153 29.2049C108.754 29.2049 105.327 29.2049 101.797 29.2049C101.797 30.4067 101.797 31.4934 101.797 32.7029C107.449 32.7029 113.101 32.7029 118.819 32.7029C118.819 33.8241 118.819 34.8262 118.819 35.9666C118.463 35.9666 118.123 35.9666 117.778 35.9666C111.719 35.9666 105.656 35.9666 99.5976 35.9666C97.8864 35.9666 97.3715 35.4521 97.3715 33.7319C97.3676 31.3091 97.3754 28.8824 97.3792 26.4595C97.3792 26.3674 97.4102 26.2714 97.445 26.064Z" fill="#0B5306"/>
<path d="M118.827 19.5673C118.827 20.6001 118.827 21.6023 118.827 22.6659C111.7 22.6659 104.623 22.6659 97.4179 22.6659C97.4179 22.017 97.3134 21.345 97.445 20.723C97.6154 19.932 98.2271 19.4943 99.071 19.4943C105.517 19.4905 111.963 19.4943 118.409 19.4982C118.533 19.4943 118.653 19.5327 118.827 19.5673Z" fill="#0B5306"/>
<path d="M164.077 30.7638C165.289 29.8883 166.342 29.105 167.433 28.3717C167.631 28.2373 168.08 28.2142 168.262 28.3486C171.63 30.7945 174.979 33.2749 178.49 35.8667C178.068 35.9167 177.836 35.9627 177.6 35.9666C176.024 35.9743 174.441 35.909 172.869 35.9896C171.673 36.051 170.709 35.7285 169.768 34.9913C167.96 33.5668 166.075 32.2382 164.077 30.7638Z" fill="#0B5306"/>
<path d="M161.874 23.6143C160.616 24.4629 159.458 25.2538 158.278 26.0179C158.134 26.1101 157.817 26.1255 157.685 26.0333C154.789 23.9292 151.909 21.802 148.792 19.5135C151.375 19.5135 153.67 19.5097 155.97 19.5212C156.148 19.5212 156.357 19.6095 156.504 19.717C158.27 20.988 160.027 22.2704 161.874 23.6143Z" fill="#0B5306"/>
</g>
<defs>
<clipPath id="clip0_2468_26436">
<rect width="209.032" height="48" fill="white"/>
</clipPath>
</defs>
</svg>