<svg width="24" height="25" viewBox="0 0 24 25" fill="none" xmlns="http://www.w3.org/2000/svg">
<path d="M21.5999 22.1798V15.1478C21.5999 11.6918 20.8559 9.05176 16.8239 9.05176C14.8799 9.05176 13.5839 10.1078 13.0559 11.1158H13.0079V9.36376H9.19189V22.1798H13.1759V15.8198C13.1759 14.1398 13.4879 12.5318 15.5519 12.5318C17.5919 12.5318 17.6159 14.4278 17.6159 15.9158V22.1558H21.5999V22.1798Z" fill="white"/>
<path d="M2.71191 9.36328H6.69591V22.1793H2.71191V9.36328Z" fill="white"/>
<path d="M4.7039 2.97949C3.4319 2.97949 2.3999 4.01149 2.3999 5.28349C2.3999 6.55549 3.4319 7.61149 4.7039 7.61149C5.9759 7.61149 7.0079 6.55549 7.0079 5.28349C7.0079 4.01149 5.9759 2.97949 4.7039 2.97949Z" fill="white"/>
</svg>
