<svg width="20" height="22" viewBox="0 0 20 22" fill="none" xmlns="http://www.w3.org/2000/svg">
<path d="M19.3184 5.5085C18.0609 5.5085 16.9007 5.09192 15.9689 4.38916C14.9004 3.58354 14.1326 2.40179 13.8615 1.03973C13.7944 0.703194 13.7582 0.355901 13.7548 0H10.1626V9.81546L10.1583 15.1918C10.1583 16.6292 9.22232 17.848 7.92481 18.2766C7.54825 18.401 7.14157 18.4599 6.7181 18.4367C6.17758 18.407 5.67106 18.2439 5.23081 17.9805C4.29393 17.4202 3.65873 16.4037 3.64152 15.2409C3.61441 13.4235 5.08363 11.9418 6.89971 11.9418C7.25819 11.9418 7.60248 12.0004 7.92481 12.1066V9.42384V8.45942C7.58483 8.40907 7.23883 8.38282 6.88895 8.38282C4.90116 8.38282 3.04204 9.20909 1.71311 10.6977C0.708673 11.8226 0.10618 13.2578 0.0132245 14.7628C-0.108565 16.7398 0.614856 18.6192 2.0178 20.0058C2.22394 20.2093 2.44041 20.3982 2.66677 20.5725C3.8696 21.4982 5.34012 22 6.88895 22C7.23883 22 7.58483 21.9742 7.92481 21.9238C9.37165 21.7095 10.7066 21.0472 11.7601 20.0058C13.0546 18.7263 13.7698 17.0277 13.7776 15.2198L13.7591 7.19117C14.3766 7.66757 15.0519 8.06178 15.7766 8.36775C16.9037 8.84329 18.0987 9.08429 19.3287 9.08386V6.4755V5.50764C19.3296 5.5085 19.3192 5.5085 19.3184 5.5085Z" fill="black"/>
</svg>
