<svg width="24" height="25" viewBox="0 0 24 25" fill="none" xmlns="http://www.w3.org/2000/svg">
<path d="M21.576 6.6273C20.856 6.9393 20.112 7.1553 19.32 7.2513C20.136 6.7713 20.76 6.0033 21.048 5.0673C20.28 5.5233 19.44 5.8353 18.552 6.0273C17.832 5.2593 16.8 4.7793 15.672 4.7793C13.488 4.7793 11.736 6.5553 11.736 8.7153C11.736 9.0273 11.76 9.3153 11.832 9.6033C8.56798 9.4593 5.68798 7.8753 3.74398 5.4993C2.35198 7.9953 3.91198 10.0593 4.94398 10.7553C4.31998 10.7553 3.69598 10.5633 3.16798 10.2753C3.16798 12.2193 4.53598 13.8273 6.31198 14.1873C5.92798 14.3073 5.06398 14.3793 4.53598 14.2593C5.03998 15.8193 6.50398 16.9713 8.20798 16.9953C6.86398 18.0513 4.89598 18.8913 2.37598 18.6273C4.12798 19.7553 6.19198 20.4033 8.42398 20.4033C15.672 20.4033 19.608 14.4033 19.608 9.2193C19.608 9.0513 19.608 8.8833 19.584 8.7153C20.4 8.1153 21.072 7.4193 21.576 6.6273Z" fill="white"/>
</svg>
